<mxfile host="app.diagrams.net" agent="Mozilla/5.0 (Macintosh; Intel Mac OS X 10_15_7) AppleWebKit/537.36 (KHTML, like Gecko) Chrome/134.0.0.0 Safari/537.36" version="26.1.3">
  <diagram name="第 1 页" id="7Xrn4tYUbD6AxUcLTrmy">
    <mxGraphModel dx="1434" dy="1823" grid="1" gridSize="10" guides="1" tooltips="1" connect="1" arrows="1" fold="1" page="1" pageScale="1" pageWidth="827" pageHeight="1169" math="0" shadow="0">
      <root>
        <mxCell id="0" />
        <mxCell id="1" parent="0" />
        <mxCell id="qFR6V-hlNSRlsBP7KuYm-17" style="edgeStyle=orthogonalEdgeStyle;rounded=0;orthogonalLoop=1;jettySize=auto;html=1;exitX=1;exitY=0.5;exitDx=0;exitDy=0;entryX=0;entryY=0.5;entryDx=0;entryDy=0;" edge="1" parent="1" source="qFR6V-hlNSRlsBP7KuYm-2" target="qFR6V-hlNSRlsBP7KuYm-3">
          <mxGeometry relative="1" as="geometry" />
        </mxCell>
        <mxCell id="qFR6V-hlNSRlsBP7KuYm-2" value="EP CSERP Url" style="rounded=1;whiteSpace=wrap;html=1;" vertex="1" parent="1">
          <mxGeometry x="80" y="160" width="120" height="40" as="geometry" />
        </mxCell>
        <mxCell id="qFR6V-hlNSRlsBP7KuYm-18" style="edgeStyle=orthogonalEdgeStyle;rounded=0;orthogonalLoop=1;jettySize=auto;html=1;exitX=1;exitY=0.5;exitDx=0;exitDy=0;entryX=0;entryY=0.5;entryDx=0;entryDy=0;" edge="1" parent="1" source="qFR6V-hlNSRlsBP7KuYm-3" target="qFR6V-hlNSRlsBP7KuYm-4">
          <mxGeometry relative="1" as="geometry" />
        </mxCell>
        <mxCell id="qFR6V-hlNSRlsBP7KuYm-3" value="Controller" style="rounded=1;whiteSpace=wrap;html=1;" vertex="1" parent="1">
          <mxGeometry x="280" y="160" width="120" height="40" as="geometry" />
        </mxCell>
        <mxCell id="qFR6V-hlNSRlsBP7KuYm-19" style="edgeStyle=orthogonalEdgeStyle;rounded=0;orthogonalLoop=1;jettySize=auto;html=1;exitX=1;exitY=0.5;exitDx=0;exitDy=0;entryX=0;entryY=0.5;entryDx=0;entryDy=0;" edge="1" parent="1" source="qFR6V-hlNSRlsBP7KuYm-4" target="qFR6V-hlNSRlsBP7KuYm-5">
          <mxGeometry relative="1" as="geometry" />
        </mxCell>
        <mxCell id="qFR6V-hlNSRlsBP7KuYm-20" style="edgeStyle=orthogonalEdgeStyle;rounded=0;orthogonalLoop=1;jettySize=auto;html=1;exitX=1;exitY=0.5;exitDx=0;exitDy=0;entryX=0;entryY=0.5;entryDx=0;entryDy=0;" edge="1" parent="1" source="qFR6V-hlNSRlsBP7KuYm-4" target="qFR6V-hlNSRlsBP7KuYm-6">
          <mxGeometry relative="1" as="geometry" />
        </mxCell>
        <mxCell id="qFR6V-hlNSRlsBP7KuYm-21" style="edgeStyle=orthogonalEdgeStyle;rounded=0;orthogonalLoop=1;jettySize=auto;html=1;exitX=1;exitY=0.5;exitDx=0;exitDy=0;entryX=0;entryY=0.5;entryDx=0;entryDy=0;" edge="1" parent="1" source="qFR6V-hlNSRlsBP7KuYm-4" target="qFR6V-hlNSRlsBP7KuYm-7">
          <mxGeometry relative="1" as="geometry" />
        </mxCell>
        <mxCell id="qFR6V-hlNSRlsBP7KuYm-22" style="edgeStyle=orthogonalEdgeStyle;rounded=0;orthogonalLoop=1;jettySize=auto;html=1;exitX=1;exitY=0.5;exitDx=0;exitDy=0;entryX=0;entryY=0.5;entryDx=0;entryDy=0;" edge="1" parent="1" source="qFR6V-hlNSRlsBP7KuYm-4" target="qFR6V-hlNSRlsBP7KuYm-8">
          <mxGeometry relative="1" as="geometry" />
        </mxCell>
        <mxCell id="qFR6V-hlNSRlsBP7KuYm-28" style="edgeStyle=orthogonalEdgeStyle;rounded=0;orthogonalLoop=1;jettySize=auto;html=1;exitX=1;exitY=0.5;exitDx=0;exitDy=0;entryX=0;entryY=0.5;entryDx=0;entryDy=0;" edge="1" parent="1" source="qFR6V-hlNSRlsBP7KuYm-4" target="qFR6V-hlNSRlsBP7KuYm-9">
          <mxGeometry relative="1" as="geometry" />
        </mxCell>
        <mxCell id="qFR6V-hlNSRlsBP7KuYm-29" style="edgeStyle=orthogonalEdgeStyle;rounded=0;orthogonalLoop=1;jettySize=auto;html=1;exitX=1;exitY=0.5;exitDx=0;exitDy=0;entryX=0;entryY=0.5;entryDx=0;entryDy=0;" edge="1" parent="1" source="qFR6V-hlNSRlsBP7KuYm-4" target="qFR6V-hlNSRlsBP7KuYm-10">
          <mxGeometry relative="1" as="geometry" />
        </mxCell>
        <mxCell id="qFR6V-hlNSRlsBP7KuYm-30" style="edgeStyle=orthogonalEdgeStyle;rounded=0;orthogonalLoop=1;jettySize=auto;html=1;exitX=1;exitY=0.5;exitDx=0;exitDy=0;entryX=0;entryY=0.5;entryDx=0;entryDy=0;" edge="1" parent="1" source="qFR6V-hlNSRlsBP7KuYm-4" target="qFR6V-hlNSRlsBP7KuYm-16">
          <mxGeometry relative="1" as="geometry" />
        </mxCell>
        <mxCell id="qFR6V-hlNSRlsBP7KuYm-40" style="edgeStyle=orthogonalEdgeStyle;rounded=0;orthogonalLoop=1;jettySize=auto;html=1;exitX=0.5;exitY=0;exitDx=0;exitDy=0;entryX=0.5;entryY=0;entryDx=0;entryDy=0;" edge="1" parent="1" source="qFR6V-hlNSRlsBP7KuYm-4" target="qFR6V-hlNSRlsBP7KuYm-37">
          <mxGeometry relative="1" as="geometry" />
        </mxCell>
        <mxCell id="qFR6V-hlNSRlsBP7KuYm-4" value="DomainUtil" style="rounded=1;whiteSpace=wrap;html=1;" vertex="1" parent="1">
          <mxGeometry x="480" y="160" width="120" height="40" as="geometry" />
        </mxCell>
        <mxCell id="qFR6V-hlNSRlsBP7KuYm-23" style="edgeStyle=orthogonalEdgeStyle;rounded=0;orthogonalLoop=1;jettySize=auto;html=1;exitX=1;exitY=0.5;exitDx=0;exitDy=0;entryX=0;entryY=0.5;entryDx=0;entryDy=0;" edge="1" parent="1" source="qFR6V-hlNSRlsBP7KuYm-5" target="qFR6V-hlNSRlsBP7KuYm-11">
          <mxGeometry relative="1" as="geometry" />
        </mxCell>
        <mxCell id="qFR6V-hlNSRlsBP7KuYm-5" value="Country Filter" style="rounded=1;whiteSpace=wrap;html=1;" vertex="1" parent="1">
          <mxGeometry x="680" y="-80" width="120" height="40" as="geometry" />
        </mxCell>
        <mxCell id="qFR6V-hlNSRlsBP7KuYm-24" style="edgeStyle=orthogonalEdgeStyle;rounded=0;orthogonalLoop=1;jettySize=auto;html=1;exitX=1;exitY=0.5;exitDx=0;exitDy=0;entryX=0;entryY=0.5;entryDx=0;entryDy=0;" edge="1" parent="1" source="qFR6V-hlNSRlsBP7KuYm-6" target="qFR6V-hlNSRlsBP7KuYm-11">
          <mxGeometry relative="1" as="geometry" />
        </mxCell>
        <mxCell id="qFR6V-hlNSRlsBP7KuYm-6" value="Region FIlter" style="rounded=1;whiteSpace=wrap;html=1;" vertex="1" parent="1">
          <mxGeometry x="680" width="120" height="40" as="geometry" />
        </mxCell>
        <mxCell id="qFR6V-hlNSRlsBP7KuYm-26" style="edgeStyle=orthogonalEdgeStyle;rounded=0;orthogonalLoop=1;jettySize=auto;html=1;exitX=1;exitY=0.5;exitDx=0;exitDy=0;entryX=0;entryY=0.5;entryDx=0;entryDy=0;" edge="1" parent="1" source="qFR6V-hlNSRlsBP7KuYm-7" target="qFR6V-hlNSRlsBP7KuYm-11">
          <mxGeometry relative="1" as="geometry" />
        </mxCell>
        <mxCell id="qFR6V-hlNSRlsBP7KuYm-7" value="Category Filter" style="rounded=1;whiteSpace=wrap;html=1;" vertex="1" parent="1">
          <mxGeometry x="680" y="80" width="120" height="40" as="geometry" />
        </mxCell>
        <mxCell id="qFR6V-hlNSRlsBP7KuYm-27" style="edgeStyle=orthogonalEdgeStyle;rounded=0;orthogonalLoop=1;jettySize=auto;html=1;exitX=1;exitY=0.5;exitDx=0;exitDy=0;entryX=0;entryY=0.5;entryDx=0;entryDy=0;" edge="1" parent="1" source="qFR6V-hlNSRlsBP7KuYm-8" target="qFR6V-hlNSRlsBP7KuYm-11">
          <mxGeometry relative="1" as="geometry" />
        </mxCell>
        <mxCell id="qFR6V-hlNSRlsBP7KuYm-8" value="SupplierType Filter" style="rounded=1;whiteSpace=wrap;html=1;" vertex="1" parent="1">
          <mxGeometry x="680" y="160" width="120" height="40" as="geometry" />
        </mxCell>
        <mxCell id="qFR6V-hlNSRlsBP7KuYm-31" style="edgeStyle=orthogonalEdgeStyle;rounded=0;orthogonalLoop=1;jettySize=auto;html=1;exitX=1;exitY=0.5;exitDx=0;exitDy=0;" edge="1" parent="1" source="qFR6V-hlNSRlsBP7KuYm-9" target="qFR6V-hlNSRlsBP7KuYm-12">
          <mxGeometry relative="1" as="geometry" />
        </mxCell>
        <mxCell id="qFR6V-hlNSRlsBP7KuYm-9" value="Normalize Keyword" style="rounded=1;whiteSpace=wrap;html=1;" vertex="1" parent="1">
          <mxGeometry x="680" y="240" width="120" height="40" as="geometry" />
        </mxCell>
        <mxCell id="qFR6V-hlNSRlsBP7KuYm-33" style="edgeStyle=orthogonalEdgeStyle;rounded=0;orthogonalLoop=1;jettySize=auto;html=1;exitX=1;exitY=0.5;exitDx=0;exitDy=0;entryX=0;entryY=0.5;entryDx=0;entryDy=0;" edge="1" parent="1" source="qFR6V-hlNSRlsBP7KuYm-10" target="qFR6V-hlNSRlsBP7KuYm-13">
          <mxGeometry relative="1" as="geometry" />
        </mxCell>
        <mxCell id="qFR6V-hlNSRlsBP7KuYm-10" value="Normalize Path" style="rounded=1;whiteSpace=wrap;html=1;" vertex="1" parent="1">
          <mxGeometry x="680" y="320" width="120" height="40" as="geometry" />
        </mxCell>
        <mxCell id="qFR6V-hlNSRlsBP7KuYm-38" style="edgeStyle=orthogonalEdgeStyle;rounded=0;orthogonalLoop=1;jettySize=auto;html=1;exitX=1;exitY=0.5;exitDx=0;exitDy=0;entryX=0;entryY=0.5;entryDx=0;entryDy=0;" edge="1" parent="1" source="qFR6V-hlNSRlsBP7KuYm-11" target="qFR6V-hlNSRlsBP7KuYm-36">
          <mxGeometry relative="1" as="geometry" />
        </mxCell>
        <mxCell id="qFR6V-hlNSRlsBP7KuYm-11" value="Company Search" style="rounded=1;whiteSpace=wrap;html=1;" vertex="1" parent="1">
          <mxGeometry x="880" y="-80" width="120" height="40" as="geometry" />
        </mxCell>
        <mxCell id="qFR6V-hlNSRlsBP7KuYm-32" style="edgeStyle=orthogonalEdgeStyle;rounded=0;orthogonalLoop=1;jettySize=auto;html=1;exitX=1;exitY=0.5;exitDx=0;exitDy=0;entryX=0;entryY=0.5;entryDx=0;entryDy=0;" edge="1" parent="1" source="qFR6V-hlNSRlsBP7KuYm-12" target="qFR6V-hlNSRlsBP7KuYm-14">
          <mxGeometry relative="1" as="geometry" />
        </mxCell>
        <mxCell id="qFR6V-hlNSRlsBP7KuYm-12" value="Keyword Translate" style="rounded=1;whiteSpace=wrap;html=1;" vertex="1" parent="1">
          <mxGeometry x="880" y="240" width="120" height="40" as="geometry" />
        </mxCell>
        <mxCell id="qFR6V-hlNSRlsBP7KuYm-13" value="Canonical" style="rounded=1;whiteSpace=wrap;html=1;" vertex="1" parent="1">
          <mxGeometry x="1080" y="320" width="120" height="40" as="geometry" />
        </mxCell>
        <mxCell id="qFR6V-hlNSRlsBP7KuYm-14" value="Alternate" style="rounded=1;whiteSpace=wrap;html=1;" vertex="1" parent="1">
          <mxGeometry x="1080" y="240" width="120" height="40" as="geometry" />
        </mxCell>
        <mxCell id="qFR6V-hlNSRlsBP7KuYm-15" value="Index" style="rounded=1;whiteSpace=wrap;html=1;" vertex="1" parent="1">
          <mxGeometry x="1080" y="400" width="120" height="40" as="geometry" />
        </mxCell>
        <mxCell id="qFR6V-hlNSRlsBP7KuYm-35" style="edgeStyle=orthogonalEdgeStyle;rounded=0;orthogonalLoop=1;jettySize=auto;html=1;exitX=1;exitY=0.5;exitDx=0;exitDy=0;entryX=0;entryY=0.5;entryDx=0;entryDy=0;" edge="1" parent="1" source="qFR6V-hlNSRlsBP7KuYm-16" target="qFR6V-hlNSRlsBP7KuYm-15">
          <mxGeometry relative="1" as="geometry" />
        </mxCell>
        <mxCell id="qFR6V-hlNSRlsBP7KuYm-16" value="Path" style="rounded=1;whiteSpace=wrap;html=1;" vertex="1" parent="1">
          <mxGeometry x="680" y="400" width="120" height="40" as="geometry" />
        </mxCell>
        <mxCell id="qFR6V-hlNSRlsBP7KuYm-39" style="edgeStyle=orthogonalEdgeStyle;rounded=0;orthogonalLoop=1;jettySize=auto;html=1;exitX=1;exitY=0.5;exitDx=0;exitDy=0;entryX=0;entryY=0.5;entryDx=0;entryDy=0;" edge="1" parent="1" source="qFR6V-hlNSRlsBP7KuYm-36" target="qFR6V-hlNSRlsBP7KuYm-37">
          <mxGeometry relative="1" as="geometry" />
        </mxCell>
        <mxCell id="qFR6V-hlNSRlsBP7KuYm-36" value="Filters" style="rounded=1;whiteSpace=wrap;html=1;" vertex="1" parent="1">
          <mxGeometry x="1080" y="-80" width="120" height="40" as="geometry" />
        </mxCell>
        <mxCell id="qFR6V-hlNSRlsBP7KuYm-37" value="EP Filter Url" style="rounded=1;whiteSpace=wrap;html=1;" vertex="1" parent="1">
          <mxGeometry x="1280" y="-80" width="120" height="40" as="geometry" />
        </mxCell>
      </root>
    </mxGraphModel>
  </diagram>
</mxfile>
